/* XPM */
static char *_9acb461412b400889fc417b01fed7ccKtLpIJ43WqoCA6on[] = {
/* columns rows colors chars-per-pixel */
"80 66 256 2 ",
"   c #030302",
".  c #0A0302",
"X  c #020B03",
"o  c #0B0B03",
"O  c #03040B",
"+  c #09090B",
"@  c #140A05",
"#  c #071207",
"$  c #16140A",
"%  c #0A0913",
"&  c #1A1817",
"*  c #0D1216",
"=  c #281705",
"-  c #261C19",
";  c #2F0D04",
":  c #192219",
">  c #29261B",
",  c #36291B",
"<  c #382D12",
"1  c #1A1B21",
"2  c #261E25",
"3  c #172526",
"4  c #292626",
"5  c #332B23",
"6  c #3B2C23",
"7  c #382927",
"8  c #3A3228",
"9  c #373835",
"0  c #2C2F31",
"q  c #481B05",
"w  c #4E0F07",
"e  c #700D0B",
"r  c #472506",
"t  c #582B06",
"y  c #432D1A",
"u  c #563312",
"i  c #652B04",
"p  c #673707",
"a  c #773906",
"s  c #6F3416",
"d  c #432D26",
"f  c #463529",
"g  c #483834",
"h  c #533B36",
"j  c #563527",
"k  c #6D3528",
"l  c #711929",
"z  c #38443C",
"x  c #2E412F",
"c  c #7A4509",
"v  c #794815",
"b  c #6E450D",
"n  c #4A463A",
"m  c #574538",
"M  c #564830",
"N  c #6B4E32",
"B  c #5B4314",
"V  c #353B46",
"C  c #4A3C42",
"Z  c #394749",
"A  c #474A48",
"S  c #564A46",
"D  c #49534A",
"F  c #57564A",
"G  c #494D53",
"H  c #4B5555",
"J  c #575956",
"K  c #534D55",
"L  c #685749",
"P  c #675C56",
"I  c #6F534C",
"U  c #576355",
"Y  c #646458",
"T  c #766656",
"R  c #515764",
"E  c #656968",
"W  c #776A65",
"Q  c #6F7570",
"!  c #5E686A",
"~  c #B50B03",
"^  c #B50B0C",
"/  c #B90909",
"(  c #B8160A",
")  c #B90A14",
"_  c #B91715",
"`  c #AC1010",
"'  c #88380C",
"]  c #B92609",
"[  c #BA2518",
"{  c #B23313",
"}  c #B91D24",
"|  c #BA342B",
" . c #B72F31",
".. c #8E1E1D",
"X. c #DA0C0B",
"o. c #D60B09",
"O. c #D9150B",
"+. c #D70C13",
"@. c #C61915",
"#. c #DB1413",
"$. c #D81916",
"%. c #C70F0A",
"&. c #E31815",
"*. c #E5120F",
"=. c #C4280B",
"-. c #DC250A",
";. c #C7360B",
":. c #C82916",
">. c #D92716",
",. c #C83815",
"<. c #D83816",
"1. c #D5370C",
"2. c #E5270C",
"3. c #E6360B",
"4. c #E52813",
"5. c #E73816",
"6. c #F4391A",
"7. c #F12C11",
"8. c #D91E25",
"9. c #D92826",
"0. c #D03131",
"q. c #E63628",
"w. c #874806",
"e. c #964A07",
"r. c #89540C",
"t. c #995509",
"y. c #864A14",
"u. c #8A5414",
"i. c #985614",
"p. c #954B14",
"a. c #A95907",
"s. c #B45B07",
"d. c #A65A16",
"f. c #AF520E",
"g. c #976418",
"h. c #B96408",
"j. c #A96616",
"k. c #B76816",
"l. c #B8731A",
"z. c #AC690D",
"x. c #8E522B",
"c. c #B84B35",
"v. c #97662C",
"b. c #B76A26",
"n. c #B97727",
"m. c #AE702C",
"M. c #CA460A",
"N. c #D6460C",
"B. c #D64816",
"V. c #DA5717",
"C. c #CC4C15",
"Z. c #EB4617",
"A. c #E65718",
"S. c #ED4913",
"D. c #C56709",
"F. c #C46A14",
"G. c #C87919",
"H. c #D66D14",
"J. c #E7681B",
"K. c #D04C2C",
"L. c #EC5226",
"P. c #C97826",
"I. c #D37128",
"U. c #E56827",
"Y. c #E97827",
"T. c #EE7533",
"R. c #B63545",
"E. c #B84C4A",
"W. c #88756D",
"Q. c #B56369",
"!. c #946855",
"~. c #D34F4D",
"^. c #E55857",
"/. c #E44B50",
"(. c #CD6752",
"). c #E86B53",
"_. c #C85C66",
"`. c #E75C61",
"'. c #CA6668",
"]. c #CE7175",
"[. c #E96767",
"{. c #EF7777",
"}. c #748A7B",
"|. c #BA8631",
" X c #BC8618",
".X c #CB841C",
"XX c #CB8627",
"oX c #D68929",
"OX c #D88835",
"+X c #D99837",
"@X c #CF9031",
"#X c #E39837",
"$X c #E78931",
"%X c #DAA339",
"&X c #E4A53D",
"*X c #B08D5A",
"=X c #DB9B43",
"-X c #D4924B",
";X c #E89245",
":X c #D7A94F",
">X c #E6A747",
",X c #EBB353",
"<X c #F2837D",
"1X c #EE857F",
"2X c #EEBD67",
"3X c #DDB56C",
"4X c #EEC772",
"5X c #F0C157",
"6X c #747B88",
"7X c #E27C83",
"8X c #827F8A",
"9X c #7B858A",
"0X c #868C96",
"qX c #8B9399",
"wX c #908F8F",
"eX c #A49590",
"rX c #959AA3",
"tX c #99A4A5",
"yX c #AEB0B0",
"uX c #9FA399",
"iX c #EC8585",
"pX c #F48484",
"aX c #F78688",
"sX c #F29797",
"dX c #F3A39E",
"fX c #F8A7A7",
"gX c #F5B6B5",
"hX c #FAB5B5",
"jX c #F4B9B6",
"kX c #FBB6BA",
"lX c #F6BABA",
"zX c #FAB9BA",
"xX c #F8B8B7",
"cX c #F0B6B2",
"vX c #CF9C9D",
"bX c #F7C0BD",
"nX c #DDCA9F",
"mX c #B7BAC1",
"MX c #FABAC2",
"NX c #BBC4C8",
"BX c #D0CFD0",
"VX c #F7C6C7",
"CX c #F8D9D9",
"ZX c #ECCFCD",
"AX c #FBEAE7",
"SX c #F8F5EC",
"DX c #FCF5F3",
"FX c #F4FBF4",
"GX c #FCFCF5",
"HX c #F5FDFC",
"JX c #FEFEFE",
"KX c #FDFDFD",
"LX c #FAF6FA",
"PX c #F1F1F0",
"IX c #FBE3DB",
"UX c #BBC5BA",
/* pixels */
"aX1XpXaXaXpXaXxXjXxXDXKXKXJXJXKXJXJXJXJXJXJXJXJXKXKXKXGXGXKXGXV   o       $ BXFXKXJXGXKXJXKXKXHXJXJXGXKXKXJXJXKXKXKXJXGXKXKXJXGXGXJXKXGXCXzXhXfXaXpXaXpXpXpXaXfX",
"aXpXaXaXpXpXaXdXkXbXxXAXJXKXLXKXJXJXJXJXJXJXJXJXJXJXKXKXJXJX+ vXT I I N M M f m eX9 # KXHXGXJXGXJXLXJXJXJXLXJXJXFXFXJXHXKXJXLXKXKXKXDXVXMXfXaXpXaXaXaXiXpXaXaXfX",
"aX7XaXiXpXaXaXdXkXxXjXhXAXJXJXKXJXJXJXJXJXJXJXJXGXKXJXJXJXGX  T L L m m M h g f f 8 g + JXKXKXKXKXKXJXJXLXJXKXDXGXHXKXJXJXKXKXJXJXDXMXgXaXpXaXpXaXpXpXaXpXpXpXdX",
"iXaX<XpXpX<XpXdXzXjXxXzXzXDXJXJXJXJXJXJXJXJXJXJXJXKXKXGXKXJX- T L L M M 6 8 5 6 < , 6 F LXFXJXGXKXJXLXKX. F P T L F S $     yXFXSXhXdXaX<X<XaXaXpXaXiXpXaXaXaXhX",
"pX<XaXaXaXpXaXjXxXlXjXxXxXVXKXKXJXJXJXJXJXJXJXJXJXGXHXJXKXGXF N M h g d 7 , 5 > 4 > - 8 DXKXKXKXFXKXLXo eXP L m S m h n h g f ..K.+.{.aXaXpX7X<XpXaXpXpX7XaXsXhX",
"sXaX<XpXaXaXfXlXxXkXlXjXxXxXCXKXJXJXJXJXJXJXJXJXJXJXPX@ & X N h f f 8 5 > > > 4 -   m.@X<   uXDXJXJXJX. P I I L N M n g h j  .[ $.$.q.<X<XaXaX{.aX{.aXaXaXsXxXVX",
"IXfXsXsXfXhXzXkXxXhXzXlXxXlXlXAXJXJXJXJXJXJXJXJXJXFXT 5 4 : +X+XoXP.a.z.:X. % - y h.:X>X+Xj.@ A   GXKX9 T L L S n n h g j  .@.O.$.@.&.X.<XaXpXaXpXaXiXaXfXlXCXKX",
"KXCXjXxXxXhXhXlXxXlXgXzXgXkXlXVXJXJXJXJXJXJXJXJXKXFXf 2 4 : ,XoXoXG.j.d.p.p.v t t.w.>X+X@Xl.  g n n o L L m M g g g 6 l _ $.#.#.#.#.#.+.aXiXpXpXpXaXdXkXbXAXJXJX",
"KXGXVXxXxXxXlXjXzXkXkXxXlXlXgXzXCXKXGXJXKXJXJXJXHXLX- > - > ,X$XoXl.j.t.u.p.w.O e.+X@X@Xz.I.  8 % + . m j f g g 6 , u @.O.$.O.O.O.o.2.#.o.#.pXaXsXxXMXCXLXJXKXJX",
"JXKXDXMXxXxXgXkXjXgXgXgXgXxXxXxXlXAXJXKXJXLXJXKXKXLX$ 1 1 * #XoXG.k.d.i.u.r.+ G = @XXXk.a.k.& * < > 4 :X+X.X.Xl.k.|.).$.o.+.+.#.q.6.L.L.L.S.>.~ R.CXFXKXJXHXGXJX",
"GXJXJXGXVXxXhXkXlXlXxXxXxXxXxXgXhXMXDXJXJXGXJXKXJX  G 0 +   ; r % E W G Z 9 4 +   9XG A = D.4 + - 4 & 3X+X+XoXXXG.<.5.-.O.2.$.o.O.A.S.A.Z.A.| !.T *X. DXJXKXJXLX",
"GXJXJXKXFXMXzXjXxXlXjXlXxXxXxXlXxXzXCXGXKXJXLXJXKXPX+ & * E C   H X N c p p G i   E Y K z s.& @ 4 7 . ,X+X#X$XJ.3.3.-.2.>.O.O.L.S.A.L.5.Z.I.j P P W W W.GXLXJXKX",
"JXLXJXJXKXDXMXjXkXzXgXgXlXxXxXxXkXlXkXAXHXJXKXJXJXPX+ 9   4 g M 5 4 # V % ' Z u.r   X . B t.4 + 2 & X #X$XOXJ.Z.7.<.-.2.&.>.X.4.Z.S.5.B.M.i 5 F P Y T W wXJXKXJX",
"JXJXGXJXJXJXDXVXgXxXxXlXlXxXgXkXkXxXgXzXDXKXJXJXGXLX& o ! % S S M g h 2 o X . i p m.i.p.i.n.# Q X . @ OX$XJ.A.5.3.-.2.2.-.O.*.$.+.+.N.M.a.. d S n P F Y o LXJXJX",
"KXKXJXGXJXJXGXAXVXcXxXzXgXlXgXkXlXhXxXgXMXDXJXGXJXPX- & 1 * J n m h g X V # |.r x.j.r.d.i.i.. X % w ..` _ %.q.0.9.9.8.$.$.#.O.o.+.~.e = h.. 0 g S n F P + HXHXKX",
"JXJXKXJXKXKXJXKXAXVXkXkXgXlXjXzXjXlXhXkXgXMXDXJXKX& 0 . X 1 # V O }.4 + 1 1 e.< p j.i.e.i.i.w.. ; E. ./ %.$.X.$.+.4.O.O.&.9.2.$.'.T V Z k.  0 g 9 A S A 9XJXJXKX",
"JXJXJXJXJXJXJXJXJXAXlXgXxXlXxXkXxXxXxXgXzXkXlXIXKX9 +   & : . V O R O & 4 & a.< 9 Q x.t.e.i.e.e ~ ( :.:.8.$.$.+.o.$.X.>.O.9.O.{ =   * O s.  4 0 9 g h 9 DXKXHXKX",
"JXJXJXJXJXJXJXJXLXKXAXkXxXgXlXkXxXxXxXjXlXxXgXlXLXo   @ . 0 O # * .   * X o p q E H & z d.t.C.| ^  .+.9.9.9.$.O.#.#.o.9.+.$.s b.j.a.f.a.a.XX3 2 4 4 0 0 HXKXJXKX",
"JXJXJXJXJXJXJXJXKXKXJXSXlXgXzXlXxXlXxXgXgXlXxXhXxXAXK 0 V Z G ! Q 9 # o #   . O @ E z 1 t.,.B.[ _ o.X.9.9.#.>.>.>.$.#.#.~.w i z.b.a.t.s.s.b.  0 2 7 0 + HXKXKXKX",
"JXJXJXJXJXJXJXJXKXJXKXJXSXkXxXgXgXjXgXkXkXlXxXkXhXlXe * y |.s j q ; $ . % * H v e.i x.f.1.,.C./ q.$.X.X.9.+.q.X.9.9.0.| e m.i j.j.a.a.a.s.s.t.o 2 4 4   GXKXGXKX",
"JXJXJXJXJXJXJXJXKXJXJXKXJXDXxXjXkXlXgXxXzXjXgXjXlXkX^ !.J $ ; s.+ J # u = q i 5 % p.;.,.,.,.( X.+.$.$.#.&.$.+.9.+.0./ ..X f.u 9 @ f.a.a.s.s.h.a.  4 > . LXKXDXJX",
"JXJXJXJXJXJXJXJXKXJXKXKXKXJXAXgXkXxXlXgXxXxXgXzXMXxX[ / k $ G X Z E o i , u 6XtXw ] A.V.1.1.4.#.9.O.O.$.o.*.#.@.( ) !.= v.f.+ ! J J . h.h.D.D.h.j.a.a.j.JXJXKXGX",
"JXJXJXJXJXJXJXJXKXJXKXHXKXKXGXCXgXgXxXlXlXlXgXkXgXgX~ | / e A # w.t o X Z 9 Q Q.R._ K.V.2.2.o.+.o.&.9.&.O.O.%.] ~ e @ O V z X A J H : s.D.F.D.D.h.s.k.b.GXGXJXLX",
"JXJXJXJXJXJXJXJXKXHXJXKXKXGXJXLXVXlXkXxXgXxXxXxXxX^ / C.T.A.C.u 3 X q : n.a ) E.[ ~ %.-.2.2.$.*.X.$.+.9.+.( _ } I + = @ u i = r < 3 + s.h.F.D.D.F.D.h.v.GXJXKXJX",
"JXJXJXJXJXJXJXJXJXJXJXJXJXJXJXJXGXCXkXMXjXxXlXhX) ` Y.Y.T.A.A.M.a X $ U l.B.C.( =.$.O.#.X.+.o.9.X.X.X.o.) c.` w a r O 0 8 q n.D.a.a.s.h.h.D.D.D.G.D.h.m.FXHXKXJX",
"JXJXJXJXJXJXJXJXJXJXJXJXJXJXJXJXGXLXIXcXkXxXkXxXsX~ E.I.^ ^ }  .[ q . !._ C.B.B.>.3.S.3.3.3.q.X.9.O.A.V.C.{ - H - q ; i . . w.b.t.h.s.s.h.F.F.D.D.D.s.z.KXKXKXHX",
"JXJXJXJXJXJXJXJXJXJXJXJXJXJXJXJXKXKXKXAXkXlXhX'._ c./ _ / =.[ ( ( ) ) /  .K.B.4.3.8.4.5.3.3.0.o.1.^ E.U.G.P.g.B * R u + 6X6X- e.XXs.s.h.h.F.D.s.s.d.s.s.FXFXKXKX",
"JXJXJXJXJXJXJXJXJXJXJXJXJXJXJXJXHXGXFXKXAXlX/ ~ B.B.Y.;.~ E.;.( ;.Z.S.@.R.@.Z.5.5.-.X.5.5.-.<./ ^ _ _ I   F.j.r.y.y 3 E 6XQ G + e.z.b.s.h.a.a.a.a.a.a.h.GXJXGXKX",
"JXJXJXJXJXJXJXJXJXJXJXJXJXJXJXJXJXLXJXFXKXUX) N.J.I.Y.B.=.=. ./ q.Z.A.Z.2.S.Z.Z.5.5.#.Z.3.:.~ / K.F.j.g.X J 5 J & u = ; A U H   j + + -Xh.a.s.a.a.s.@X# SXKXLXFX",
"JXJXJXJXJXJXJXJXJXJXJXJXJXJXJXJXDXJXJXKXHXGXk 0.~ N.K.K.,.:.) X.9.Z.L.5.5.6.Z.Z.3.<.-.2.B. .<.V.Y.#X>XY.P.p & 3 $ + *X|.j.c k w.y.e.p.p p t u $ @ , q u KXJXHXJX",
"JXJXJXJXJXJXJXJXJXJXJXJXJXJXJXJXJXLXLXKX, * E N } ^ ) ~ ~ +.o.9.O.$.6.6.6.5.6.Z.5.5.2.:./ ^ _ Y.#X&X$XG.b.d.g.- 9   @XF.F.l.y.u P.P.G.k.w.c b s p t t @ GXJXJXGX",
"JXJXJXJXJXJXJXJXJXJXJXJXJXJXJXJXGXGXLXO o j.G.=XP.=.| :.#.5.8.X.*.*.&.6.6.6.5.7.5.>.1.~ | 1.y.K N :X|.|.m.a.r.t : { X * G.P.l.b +X.XG.l.j.t.r.c c u = s.Q FXJXKX",
"JXJXJXJXJXJXJXJXGXJXKXKXKXJXFXGXJXGXE O XXG.oXoXl.t.] 8.o.O.Z.*.*.7.6.6.Z.6.6.7.4.1.:.~ ^ h E H O X - * 3 9 Z R ! ! G $ oXOXn.b.M j.G.k.z.d.p.v p @ e.t.@ JXHXJX",
"JXJXJXJXJXJXJXJXJXJXGXDXHXJXKXKXKXFX$ P l.-X@Xm.p.e./ <./.X.6.6.2.5.3.7.5.7.7.3.4.4.o.` ; g.l.l.j.@ Q u.t.r.u p.u 0 0 mX0 +X;Xl.c O j.P.j.i.r.r.  e.a.t.. KXJXKX",
"JXJXJXJXJXJXJXJXKXLXKXJXJXJXJXHXX D 4 O X . X ; e ^ @.~ +.*.*.6.6.3.*.4.2.5.3.2.2.X.%.N.oX+X=X%XG.l.b - @ t %X.Xl.P.3 9 * #X=X@Xl.s >Xk.z.i.p.. p.i.F.r.u.FXJXHX",
"JXJXJXJXJXJXJXJXJXJXKXGXKXGX$ o   s.n.G.t 3 ; ' ( K.B.N.+.9.O.6.6.5.6.2.X.$.-.2.O.~ E.V.T.OX#XG.G.j.g.p % X + G.G.XXOXx.|.=X+X%Xm.u.+  Xj.i.u  Xe.h.w.w.w.DXKXKX",
"JXJXJXJXJXJXJXJXKXGXKXKXKXLX% J D , h.j.i.q l / C.S.S.L.Z.+.L.L.6.6.7.q.2.O.X.>.=.K.K. .( U.H.I.b.d.r.a D s.G O XX@X@X=X=X>X,X>X=Xj.u @Xt.c :Xa F.r.w.' a BXKXGX",
"JXJXJXJXJXJXJXJXJXKXHXGXDXo P.n.y.O 9 E ; e ,./ :.5.L.A.L.L.S.Z.Z.4.<.1.4.O.@.^ | _ ^ / _ ] _ ..S D   = Q J G 9 # ;X#X=X>X>X,X>X>X-Xa O |.b ' z.a.w.c c a   KXGX",
"JXJXJXJXJXJXJXJXGXKXKXX 4X,X,XP.F.m.b v e  .0.| -.Z.Z.L.L.Z.Z.Z.<.K.5.-.O.K. .] K.B.C.V.N.(  .,.] i > O * o 0 K K |.=X>X>X,X,X,X=X|.v - i.b y.d.w.w.a p i   CXJX",
"JXJXJXJXJXJXJXJXLX  4X4X2X2X,X,X&X+Xn.F.V.M.} `.$.Z.Z.Z.Z.Z.5.<.B.] ^ U.( ] 0.{ J.J.U.V.V.C.=._ ) ( H.XXn.XXN 9 9 :X+X@X=X>X,X:X:Xn.b   ' a i w.a p p i t = . KX",
"KXKXKXLXLXuX+ nX2X2X,X5X5X,X>X>X#X+XY.A.C.B.X.$.o.5.5.3.3.>.=.:.~ V.x.t s ~ ^ ^ ~ A.A.V.B.M.M.=.^ _ ( V.H.OX@X=X+X-X. k.@XXXXXn.i.y.B w.r.a +Xw.p p i t r Q # KX",
"GXJXLX+ G.+ 4X2X,X,X,X&X>X@X>X>X+XI.V.B.5.2.-.5.2.2.>.-.2.%.U.:.] a t @ + s ( ( / E.) [ | } ^ ] ~.|  .U.U.U.#X>X:X:X,Xn.o n..Xd.u.f  Xr.e.v N i i t t q }.BX4 KX",
"LXKXO 4X2X#XF.h.o = :X,XoXXXP.G.k.B.;.>.&.-.O.-.4.+.o.3.O.( =.] a < O o N b.G.A.;.:. .[ =.( _ ~ ~ _ ) } U.Y.T.#X:X>X,X,Xl.w.& n.% e.u.u.p.y.. t t r y Y BXF & GX",
"KX:   nX&X>X+Xs.k.' d.t. Xx.@ w ~ ~ #.X.O.<.-.4.O.O.O.1.] :.{ a q o m.v # Q X XXU.;.=._ ( ^ =.A.U.) ^  ./ Y.T.T.;X,X,XoXi.i.$ :Xw.e.i.r.w.v X s q . D x J D wXLX",
"GXI W h W.- o s.l.e.e.p.w.c ' ] ] #.O.O.O.*.$.#.2.-.:.;.=.' r q X 5X>XOXn.y.  0 Q s ] | _ (.| A.H.U.K.~ Y.T.).;XT.;XOXa.g.@ e.i.i.r.p.w.v w.@ ; o Y # F 9 S U   ",
"FXI L m h g 6 T . XXP.P.j.d.=.[ $.$.>.2.&.>.-.-.4.-.=.:.i r + 4X,X,X,X>XoXG.G.l.N X z Q.E.R.0.J.U.T.T.Y.T.).T.$XU.N.,... XN a.x.t.u.w.c w.c   F uXD J * D m W.  ",
"HXT T L m g f d 8 v.j.j.j.M.1.2.2.2.>.-.-.4.-.-.O.( ] e j 4X4X2X2X>X,X>X&X+XXXG.G.P.n.g.l } E.( T.Y.T.).$X$XU.J.M./ T.1.M.f.a.e.u.c w.c   E Y # G D G K Y f , + ",
"DXL W L m h f d 8 + c ' ] :.#.X.#.X.O.O.*.#.X.O.@.~ *X4X4X4X2X,X,X,X>X>X@X$X+XOXXXXXG.P.m.1 R. .T.T.T.T.U.U.B.~ Y.1.N.B.N.,.f.e.y.c b n Y yXA A A D K F N , 9 O ",
"FXI W.N L n g f 8 f s _ @.O.#.X.O.#.X.O.O.O.X.%.H.-Xs a.+ 3X2X:X>X%X+X=X+X+X@X@X$X@X+X@XoXm.@ @X$XU.H.U./ T.<.U.A.B.B.,.N.;.,.,.' o D L o Z A z A S $ W.7 X 6   ",
"LXT W P m m m 8 , s ^ :.X.o.+.#.+.o.+.o.o.+.%.(.>X4X4X2Xn.k.t.@ @ m.oXOXXXoXoX;X+X=X#X@X@XoXoX@X$ e $XN.U.A.V.V.V.N.B.M.;.;.,.{ ` x.yXZ D Z # v , 5 5 d 7 o 5 BX",
"HXeX  n m h f j .._ @.o.K.9.$.9.9.9.>.9.q./ (.I qXX :X:X=X-Xz.k.y.d.s.n.*X; @ .   + @ v.:X>Xa..XG.w.OXH.A.V.A.A.B.M.;.<.1.;.=./ K.~.R.K   N , 6 ,   , 6 5 . yXNX",
"LXL !.L uX+ y .._ #.&.O.X.9.9.9.9.>.9.9.| ~ !.W W.6 n W.@ XXb.k.s.s.h.f.k.k.b.b.P.b.P.n.XX.XP.P.oXOXoXoXY.V.U.B.C.<.,.;.;.] c.K.~ |  .[ k O 5 7 5 O , 5 . yXmXNX",
"FXL I m M k ..0.q.9.X.#.$.+.$.9.>.9.9.0.~ W.W L F h d C 0 Q @ s.s.h.a.k.k.k.F.F.G.G.P..X.XI.oXoXoXoXOXoXP.k.M.B.;.,.;.:.[ ~.c.^ | ) K.( ` ..> d 7 + . O yXyXNXKX",
"KX@ M m k  ._ #.O.#.+.&.$.$.&.$.$.$._ { j W W I S S f 6 8 , W j.d.h.h.k.F.P.P.P.I.I.XXOXoXXX$XOXoXXXn.k.d.g.p.f.;.;.] / | ~.`  ./ ( ~ ^ ^ _ ` u 8 O tXyXyXyXHXJX",
"JXJXSXw ` _ *.O.#.O.$.#.o.X.#.$.$.@...d > W W T L m f f 5 7 5   i.i.d.d.a.k.k.G..XI.oXXXl.k.k.l.j.j.k.g.g.w.y.v a [ c.c.(.c.| ^ [ ~ _.'.) ^ ~ / eXtXyXyXPXKXLXKX",
"KXJXSXgX].^.+.X.X.#.#.#.X.o.&.#._ ..@ 8   W.W L I m g 8 5 9 5 Y i.r.i.d.a.a.j.k.k.k.k.l.k.k.j.z.d.y.y.w.b b s B   F E.} K. .` [ ~ _.Q._.'.].].].].vXyXKXJXLXKXKX",
"KXGXlX{.^./././.~./.^./.[.^.+./ e ; tXO . W P P L m g d 5 5 8 ,   y.w.u.p.i.i.t.i.i.i.i.u.u.y.y.v v b u s = $ A Y yXD x.R.0.] ) _.Q.'._.].'.].].].hXMXAXKXJXJXJX",
"HXZXiX`././././.^.^.^.^.^.'.].eXuXrXqXrX. uX. o m m g g 5 4 5 5   J wX>       o = = u M N M f = @ . o Q n F Y UXA F n . N _ [ _.'._.'.'.].].7XcXhXxXjXkXVXGXJXKX",
"CXsX`.^.^././.^.`.[.[.^.{.7XyXyXtXtXyXtX4 Q W eX9 + > 8 6 5 6 6 , X z Q J F J F D D A n A n F D F J U Y yX$ K K F z . d 8 g ..Q.'.'.'.].].hXgXxXkXlXgXbXgXMXAXJX",
"sX[.^.^.^.^.^.[.[.[.[.iXvXyXyXyXmXmXyXyXW W T m m d wXF . > 5 5 5 5 o 3 Z n n A 4   + $ 5 5 > # # 9 D A G H A A   6 g   6 , X eX'.'.].cXlXgXjXkXgXkXlXcXhXzXcXAX",
"{.`.[.^.^.^.[.{.[.{.sXvXBXBXNXUXNXmXmXBXW W P S m g d 5 5 4 S W.W., , 5 X 9 G D K G G H D D H G G D D A n X g f g j d + y 0 qXqXwX7XhXgXhXzXgXlXzXgXhXxXgXlXbXzX",
"[.[.`.[.[.[.{.{.{.sXcXBXBXBXBXBXBXBXBXBXHX  F M h g g 8 5 > > 7 7 5 7 f , 6 d o X o X     X X X o . n f f 8 8 d j y , 9 9X0XwXrXtXFXAXlXjXjXzXhXgXjXlXzXxXgXgXgX",
"[.[.`.[.[.{.pXpXfXzXAXKXKXFXHXLXHXJXGXKXJXBXBX  g g 8 + 5 5 5 > 6 X X , d d d 8 d 6 6 6 d 6 f d 5 6 d f f 6 $ d , > % 0X0XtXrXZXKXKXGXDXVXMXcXxXxXjXlXxXkXzXxXxX",
"{.[.[.[.{.aXiXdXMXSXJXLXKXKXKXJXKXKXKXKXHXBXBXtXtXrX  . 5 , 5 > , + * , d d f 6 8 8 @ 8 6 f d f   8 d , d , X $ O 0X0XqXtXrXGXHXJXJXJXJXKXCXkXjXlXgXxXjXlXxXkXlX",
"<X{.{.{.7XiXfXMXLXJXJXJXJXJXJXJXJXJXJXJXKXBXBXNXtXrXqX0X9X0X*   + . + . 5 6 6 6 6 g $ , , , , 6   o 5 8     9X0X0XqXqXrXHXJXJXJXKXJXJXKXHXJXAXVXVXhXxXxXgXlXxXxX",
"aXpXaXpXaXfXVXDXJXJXJXJXJXJXJXJXJXJXJXJXKXBXBXNXNXrXrXqX0X0X9X0X9X9X6X6X! + O     . 6X  .       0XQ 8X6X0X0X0X0X0XrXFXKXJXJXJXJXJXKXJXJXLXJXKXDXVXkXxXxXxXlXxXxX"
};
